<?xml version="1.0" standalone="no"?>
<!DOCTYPE svg PUBLIC "-//W3C//DTD SVG 20010904//EN"
 "http://www.w3.org/TR/2001/REC-SVG-20010904/DTD/svg10.dtd">
<svg version="1.0" xmlns="http://www.w3.org/2000/svg"
 width="512.000000pt" height="124.000000pt" viewBox="0 0 512.000000 124.000000"
 preserveAspectRatio="xMidYMid meet">
<metadata>
Created by potrace 1.15, written by Peter Selinger 2001-2017
</metadata>
<g transform="translate(0.000000,124.000000) scale(0.100000,-0.100000)"
fill="#000000" stroke="none">
<path d="M605 1189 c-49 -28 -119 -68 -155 -90 -36 -21 -76 -45 -90 -52 -14
-6 -29 -15 -35 -20 -21 -17 -128 -77 -136 -77 -5 0 -9 -146 -9 -329 l0 -328
57 -32 c32 -18 102 -58 155 -89 317 -185 321 -186 410 -134 26 15 89 51 140
80 114 65 230 134 280 164 l37 23 1 315 0 315 -35 20 c-19 11 -74 42 -122 69
-48 27 -90 52 -93 56 -3 4 -45 29 -93 56 -48 27 -109 61 -135 76 -26 15 -56
28 -67 28 -11 0 -60 -23 -110 -51z m240 -173 c72 -40 162 -91 200 -113 l70
-40 3 -72 3 -71 -36 0 c-35 0 -35 0 -35 45 0 35 -5 48 -22 59 -53 34 -312 176
-322 176 -9 0 -233 -125 -279 -156 -16 -10 -9 -16 59 -54 l78 -43 71 38 72 39
99 -56 99 -55 3 -84 3 -84 116 -65 c64 -36 118 -69 120 -75 1 -5 -48 -38 -110
-73 -61 -34 -162 -91 -223 -126 l-111 -63 -114 65 c-63 35 -156 89 -206 119
l-93 54 0 70 0 70 37 -3 c38 -3 38 -3 35 -44 -4 -49 -4 -49 168 -144 63 -35
127 -71 142 -82 l27 -18 145 81 c80 44 148 84 151 89 6 10 -77 60 -100 60 -10
0 -43 -15 -74 -34 -120 -72 -103 -72 -216 -7 l-100 58 -3 109 -3 109 -106 60
c-58 33 -113 65 -121 71 -11 8 4 21 74 62 254 147 350 201 359 202 6 0 69 -33
140 -74z"/>
</g>
</svg>
